<?xml version="1.0" encoding="UTF-8" standalone="no"?>
<!-- Created with Inkscape (http://www.inkscape.org/) -->

<svg
   xmlns:dc="http://purl.org/dc/elements/1.1/"
   xmlns:cc="http://creativecommons.org/ns#"
   xmlns:rdf="http://www.w3.org/1999/02/22-rdf-syntax-ns#"
   xmlns:svg="http://www.w3.org/2000/svg"
   xmlns="http://www.w3.org/2000/svg"
   xmlns:sodipodi="http://sodipodi.sourceforge.net/DTD/sodipodi-0.dtd"
   xmlns:inkscape="http://www.inkscape.org/namespaces/inkscape"
   width="510.75"
   height="217.58698"
   id="svg2"
   version="1.1"
   inkscape:version="0.91 r13725"
   sodipodi:docname="CEBL3_splash.svg">
  <defs
     id="defs4">
    <filter
       style="color-interpolation-filters:sRGB;"
       inkscape:label="Drop Shadow"
       id="filter23931">
      <feFlood
         flood-opacity="0.498039"
         flood-color="rgb(0,0,0)"
         result="flood"
         id="feFlood23933" />
      <feComposite
         in="flood"
         in2="SourceGraphic"
         operator="in"
         result="composite1"
         id="feComposite23935" />
      <feGaussianBlur
         in="composite1"
         stdDeviation="3"
         result="blur"
         id="feGaussianBlur23937" />
      <feOffset
         dx="4"
         dy="4"
         result="offset"
         id="feOffset23939" />
      <feComposite
         in="SourceGraphic"
         in2="offset"
         operator="over"
         result="composite2"
         id="feComposite23941" />
    </filter>
  </defs>
  <sodipodi:namedview
     id="base"
     pagecolor="#ffffff"
     bordercolor="#666666"
     borderopacity="1.0"
     inkscape:pageopacity="0.0"
     inkscape:pageshadow="2"
     inkscape:zoom="0.92421066"
     inkscape:cx="96.102693"
     inkscape:cy="100.08866"
     inkscape:document-units="px"
     inkscape:current-layer="layer1"
     showgrid="false"
     fit-margin-top="0.2"
     fit-margin-left="0.2"
     fit-margin-right="0.2"
     fit-margin-bottom="0.2"
     units="in"
     inkscape:window-width="1825"
     inkscape:window-height="1011"
     inkscape:window-x="3"
     inkscape:window-y="51"
     inkscape:window-maximized="0" />
  <metadata
     id="metadata7">
    <rdf:RDF>
      <cc:Work
         rdf:about="">
        <dc:format>image/svg+xml</dc:format>
        <dc:type
           rdf:resource="http://purl.org/dc/dcmitype/StillImage" />
        <dc:title />
      </cc:Work>
    </rdf:RDF>
  </metadata>
  <g
     inkscape:label="Layer 1"
     inkscape:groupmode="layer"
     id="layer1"
     transform="translate(-116.98902,-400.48474)">
    <g
       id="g23708"
       style="filter:url(#filter23931)">
      <path
         d="m 148.69996,488.93787 c -2e-5,5.76565 1.10154,10.85158 3.30469,15.25781 2.24997,4.35939 5.48434,7.78126 9.70312,10.26562 4.26559,2.43751 9.28121,3.65626 15.04688,3.65625 6.04682,10e-6 11.85931,-1.54687 17.4375,-4.64062 5.62492,-3.09374 10.40617,-7.21874 14.34375,-12.375 3.98429,-5.2031 6.70303,-10.71091 8.15625,-16.52344 0.18741,-0.56246 0.56241,-0.84371 1.125,-0.84375 l 1.75781,0 c 0.37491,4e-5 0.67959,0.14066 0.91406,0.42188 0.23428,0.23441 0.35147,0.51566 0.35156,0.84375 -9e-5,0.0938 -0.047,0.23441 -0.14062,0.42187 -1.64072,6.65628 -4.82821,12.91409 -9.5625,18.77344 -4.68758,5.81251 -10.31257,10.42969 -16.875,13.85156 -6.56256,3.42187 -13.31255,5.13281 -20.25,5.13281 -7.50004,0 -14.2266,-1.6875 -20.17969,-5.0625 -5.95314,-3.37499 -10.59376,-8.06249 -13.92187,-14.0625 -3.28126,-5.99997 -4.92189,-12.77341 -4.92188,-20.32031 -1e-5,-8.06245 1.80468,-16.0312 5.41406,-23.90625 3.60936,-7.92181 8.46092,-14.95305 14.55469,-21.09375 6.09372,-6.18741 13.03121,-11.10928 20.8125,-14.76562 7.82807,-3.65615 15.74994,-5.48428 23.76563,-5.48438 3.18742,1e-4 6.23429,0.49229 9.14062,1.47656 2.90617,0.9376 5.60148,2.39073 8.08594,4.35938 2.48428,1.96884 4.52334,4.24228 6.11719,6.82031 l 11.39062,-12.375 c -1.1e-4,-0.1874 0.23427,-0.28115 0.70313,-0.28125 l 0.84375,0 c 0.37489,1e-4 0.67957,0.16417 0.91406,0.49219 0.23426,0.32822 0.35145,0.65635 0.35156,0.98437 l -9.77344,38.88282 c -10e-5,0.65631 -0.3751,0.98443 -1.125,0.98437 l -2.60156,0 c -0.75009,6e-5 -1.12509,-0.539 -1.125,-1.61719 0.37491,-2.10931 0.56241,-4.64055 0.5625,-7.59375 -9e-5,-4.68742 -0.79697,-9.09367 -2.39062,-13.21875 -1.59385,-4.17178 -4.07822,-7.52334 -7.45313,-10.05468 -3.32821,-2.53116 -7.40633,-3.79678 -12.23437,-3.79688 -7.82819,1e-4 -15.00006,1.96885 -21.51563,5.90625 -6.51567,3.93759 -12.04691,9.11727 -16.59375,15.53906 -4.50003,6.37507 -7.99221,13.47663 -10.47656,21.30469 -2.43752,7.7813 -3.65627,15.32816 -3.65625,22.64063"
         style="font-size:144px;font-style:normal;font-variant:normal;font-weight:normal;font-stretch:normal;line-height:125%;letter-spacing:0px;word-spacing:0px;fill:#ff0000;fill-opacity:1;stroke:none;font-family:cmmi10;-inkscape-font-specification:cmmi10"
         id="path2998"
         inkscape:connector-curvature="0" />
      <path
         d="m 237.36402,520.01599 c -0.9375,0 -1.40625,-0.63281 -1.40625,-1.89844 0.0469,-0.23437 0.14062,-0.63281 0.28125,-1.19531 0.14062,-0.60937 0.32812,-1.07812 0.5625,-1.40625 0.28124,-0.37499 0.60937,-0.56249 0.98438,-0.5625 5.85936,10e-6 9.93748,-0.32812 12.23437,-0.98437 1.26561,-0.42187 2.17967,-1.71093 2.74219,-3.86719 l 19.75781,-79.10156 c 0.18746,-0.93741 0.28121,-1.59366 0.28125,-1.96875 -4e-5,-1.03116 -0.58598,-1.6171 -1.75781,-1.75782 -1.78129,-0.3749 -5.2266,-0.5624 -10.33594,-0.5625 -0.93753,1e-4 -1.40628,-0.63271 -1.40625,-1.89843 0.0469,-0.23428 0.1406,-0.63272 0.28125,-1.19532 0.1406,-0.60927 0.3281,-1.07802 0.5625,-1.40625 0.28122,-0.3749 0.60935,-0.5624 0.98438,-0.5625 l 78.04687,0 c 0.98427,1e-4 1.47645,0.63291 1.47656,1.89844 l -3.44531,29.8125 c -1.1e-4,0.23444 -0.18761,0.51569 -0.5625,0.84375 -0.32823,0.28132 -0.63292,0.42194 -0.91406,0.42188 l -1.26563,0 c -0.98447,6e-5 -1.47666,-0.60931 -1.47656,-1.82813 0.5624,-4.68743 0.84365,-8.15617 0.84375,-10.40625 -10e-5,-3.84367 -0.65635,-6.82023 -1.96875,-8.92969 -1.3126,-2.15616 -3.07041,-3.70303 -5.27344,-4.64062 -2.15634,-0.93741 -4.5704,-1.52335 -7.24218,-1.75781 -2.62509,-0.23429 -6.09384,-0.35147 -10.40625,-0.35157 l -16.38282,0 c -2.62506,1e-4 -4.35943,0.23447 -5.20312,0.70313 -0.84381,0.42197 -1.61724,1.82821 -2.32031,4.21875 l -8.64844,34.80469 11.25,0 c 4.87494,5e-5 8.55462,-0.32807 11.03906,-0.98438 2.48431,-0.70307 4.45305,-2.13275 5.90625,-4.28906 1.45305,-2.15619 2.76555,-5.57806 3.9375,-10.26563 0.0937,-0.32805 0.25774,-0.6093 0.49219,-0.84375 0.28117,-0.28118 0.58586,-0.4218 0.91406,-0.42187 l 1.33594,0 c 0.93742,7e-5 1.40617,0.60944 1.40625,1.82812 l -8.92969,35.57813 c -0.18757,0.84378 -0.65632,1.26566 -1.40625,1.26562 l -1.33594,0 c -0.93757,4e-5 -1.40632,-0.60934 -1.40625,-1.82812 0.93743,-3.84371 1.40618,-6.67965 1.40625,-8.50781 -7e-5,-2.81246 -1.26569,-4.59371 -3.79687,-5.34375 -2.53132,-0.74996 -5.90631,-1.12496 -10.125,-1.125 l -11.95313,0 -9.77343,39.16406 c -0.42191,1.17188 -0.63285,2.22657 -0.63282,3.16406 -3e-5,0.75001 1.64059,1.12501 4.92188,1.125 l 17.4375,0 c 6.93744,10e-6 12.56243,-0.53906 16.875,-1.61719 4.31242,-1.07811 7.87492,-2.78905 10.6875,-5.13281 2.85929,-2.39061 5.32022,-5.41404 7.38281,-9.07031 2.06241,-3.65623 4.57022,-8.97653 7.52344,-15.96094 0.1874,-0.60934 0.60927,-0.91402 1.26562,-0.91406 l 1.33594,0 c 0.3749,4e-5 0.70302,0.1641 0.98438,0.49219 0.28114,0.32816 0.42177,0.70316 0.42187,1.125 -10e-5,0.18753 -0.047,0.37503 -0.14062,0.5625 l -14.83594,34.73437 c -0.18759,0.5625 -0.56259,0.84375 -1.125,0.84375 l -80.08594,0"
         style="font-size:144px;font-style:normal;font-variant:normal;font-weight:normal;font-stretch:normal;line-height:125%;letter-spacing:0px;word-spacing:0px;fill:#00ff00;fill-opacity:1;stroke:none;font-family:cmmi10;-inkscape-font-specification:cmmi10"
         id="path3000"
         inkscape:connector-curvature="0" />
      <path
         d="m 344.0984,520.01599 c -0.93751,0 -1.40626,-0.63281 -1.40625,-1.89844 0.0469,-0.23437 0.14062,-0.63281 0.28125,-1.19531 0.14062,-0.5625 0.32811,-1.03124 0.5625,-1.40625 0.23436,-0.37499 0.58593,-0.56249 1.05468,-0.5625 2.71874,10e-6 5.08593,-0.0703 7.10157,-0.21094 2.0156,-0.14062 3.72654,-0.39843 5.13281,-0.77343 1.12498,-0.42187 2.03904,-1.71093 2.74219,-3.86719 l 19.6875,-79.10156 c 0.18745,-0.93741 0.2812,-1.59366 0.28125,-1.96875 -5e-5,-1.03116 -0.56255,-1.6171 -1.6875,-1.75782 -1.82817,-0.3749 -5.29691,-0.5624 -10.40625,-0.5625 -0.93753,1e-4 -1.40628,-0.63271 -1.40625,-1.89843 0.0468,-0.23428 0.14059,-0.63272 0.28125,-1.19532 0.14059,-0.60927 0.32809,-1.07802 0.5625,-1.40625 0.28122,-0.3749 0.60934,-0.5624 0.98437,-0.5625 l 51.60938,0 c 3.14054,1e-4 6.23428,0.39854 9.28125,1.19532 3.09365,0.75009 5.92959,1.96884 8.50781,3.65625 2.6249,1.68759 4.68739,3.79696 6.1875,6.32812 1.54677,2.48446 2.3202,5.39071 2.32031,8.71875 -1.1e-4,3.60945 -0.93761,6.96101 -2.8125,10.05469 -1.82823,3.09381 -4.21885,5.78912 -7.17187,8.08594 -2.90635,2.29693 -6.07041,4.19536 -9.49219,5.69531 -3.37509,1.45318 -6.91415,2.5313 -10.61719,3.23437 2.62492,6e-5 5.27335,0.51568 7.94531,1.54688 2.71866,1.0313 5.13272,2.43755 7.24219,4.21875 2.10928,1.78129 3.79678,3.9141 5.0625,6.39844 1.3124,2.48441 1.96865,5.15628 1.96875,8.01562 -10e-5,5.76565 -2.01572,11.03908 -6.04687,15.82031 -4.03134,4.78126 -9.11728,8.5547 -15.25782,11.32032 -6.09382,2.71875 -12.00006,4.07812 -17.71875,4.07812 l -54.77343,0 m 26.50781,-6.1875 c -3e-5,0.75001 1.64059,1.12501 4.92187,1.125 l 20.60157,0 c 4.68743,10e-6 9.18743,-1.28905 13.5,-3.86719 4.31242,-2.62498 7.75773,-6.09373 10.33593,-10.40625 2.62492,-4.31247 3.93742,-8.81247 3.9375,-13.5 -8e-5,-2.85934 -0.60946,-5.55465 -1.82812,-8.08593 -1.17196,-2.57809 -2.8829,-4.59371 -5.13281,-6.04688 -2.25008,-1.49995 -4.8282,-2.24995 -7.73438,-2.25 l -28.05469,0 -9.98437,39.86719 c -0.37504,1.31251 -0.56253,2.36719 -0.5625,3.16406 m 11.53125,-46.82812 21.86719,0 c 4.59367,5e-5 9.0468,-1.17182 13.35937,-3.51563 4.35929,-2.34369 7.89835,-5.53119 10.61719,-9.5625 2.76553,-4.03118 4.14834,-8.2968 4.14844,-12.79687 -1e-4,-4.1718 -1.3126,-7.6171 -3.9375,-10.33594 -2.57822,-2.71866 -5.92978,-4.07803 -10.05469,-4.07813 l -19.75781,0 c -2.57819,1e-4 -4.31256,0.23447 -5.20313,0.70313 -0.89068,0.46884 -1.64068,1.87509 -2.25,4.21875 l -8.78906,35.36719"
         style="font-size:144px;font-style:normal;font-variant:normal;font-weight:normal;font-stretch:normal;line-height:125%;letter-spacing:0px;word-spacing:0px;fill:#0000ff;fill-opacity:1;stroke:none;font-family:cmmi10;-inkscape-font-specification:cmmi10"
         id="path3002"
         inkscape:connector-curvature="0" />
      <path
         d="m 452.80152,520.01599 c -0.9375,0 -1.40625,-0.63281 -1.40625,-1.89844 0.0469,-0.23437 0.14062,-0.63281 0.28125,-1.19531 0.14062,-0.60937 0.32812,-1.07812 0.5625,-1.40625 0.28124,-0.37499 0.60937,-0.56249 0.98438,-0.5625 5.85936,10e-6 9.93748,-0.32812 12.23437,-0.98437 1.26561,-0.42187 2.17967,-1.71093 2.74219,-3.86719 l 19.75781,-79.10156 c 0.18746,-0.93741 0.28121,-1.59366 0.28125,-1.96875 -4e-5,-1.03116 -0.58598,-1.6171 -1.75781,-1.75782 -1.78129,-0.3749 -5.2266,-0.5624 -10.33594,-0.5625 -0.93753,1e-4 -1.40628,-0.63271 -1.40625,-1.89843 0.3281,-1.21866 0.58591,-2.03897 0.77344,-2.46094 0.18747,-0.46865 0.72653,-0.70303 1.61719,-0.70313 l 42.53906,0 c 0.84367,1e-4 1.26555,0.63291 1.26562,1.89844 -0.1407,0.98447 -0.30476,1.75791 -0.49218,2.32031 -0.18758,0.5626 -0.65633,0.84385 -1.40625,0.84375 -7.07819,1e-4 -11.81256,0.23447 -14.20313,0.70313 -2.34381,0.42197 -3.79693,1.82821 -4.35937,4.21875 l -19.6875,79.03125 c -0.42191,1.17188 -0.63285,2.22657 -0.63282,3.16406 -3e-5,0.75001 1.64059,1.12501 4.92188,1.125 l 13.35937,0 c 7.54682,10e-6 13.664,-1.49999 18.35157,-4.5 4.68742,-2.99999 8.15617,-6.37498 10.40625,-10.125 2.24991,-3.79685 4.12491,-7.71091 5.625,-11.74219 1.54678,-4.07809 2.67178,-6.18746 3.375,-6.32812 l 1.26562,0 c 0.98428,4e-5 1.47647,0.63285 1.47656,1.89844 l -12.79687,34.875 c -0.14071,0.65625 -0.58602,0.98437 -1.33594,0.98437 l -72,0"
         style="font-size:144px;font-style:normal;font-variant:normal;font-weight:normal;font-stretch:normal;line-height:125%;letter-spacing:0px;word-spacing:0px;fill:#ffe400;fill-opacity:1;stroke:none;font-family:cmmi10;-inkscape-font-specification:cmmi10"
         id="path3004"
         inkscape:connector-curvature="0" />
      <path
         d="m 557.2859,536.60974 c 2.15623,3.28123 5.22654,5.74217 9.21093,7.38281 4.03123,1.68748 8.27341,2.53123 12.72657,2.53125 5.57808,-2e-5 9.63276,-2.27346 12.16406,-6.82031 2.5312,-4.50001 3.79682,-9.77345 3.79687,-15.82031 -5e-5,-3.75 -0.53911,-7.33594 -1.61718,-10.75781 -1.0313,-3.42187 -2.76568,-6.23437 -5.20313,-8.4375 -2.43754,-2.24999 -5.53129,-3.37499 -9.28125,-3.375 l -9.84375,0 c -0.84377,1e-5 -1.26565,-0.4453 -1.26562,-1.33594 l 0,-1.26563 c -3e-5,-0.74997 0.42185,-1.12497 1.26562,-1.125 l 8.22656,-0.63281 c 4.87497,2e-5 8.60152,-2.46091 11.17969,-7.38281 2.62495,-4.92184 3.93745,-10.03121 3.9375,-15.32813 -5e-5,-4.54682 -1.14848,-8.2265 -3.44531,-11.03906 -2.25004,-2.81244 -5.55473,-4.21869 -9.91406,-4.21875 -3.79691,6e-5 -7.40628,0.65631 -10.82813,1.96875 -3.37502,1.31256 -6.07033,3.32818 -8.08594,6.04688 0.18749,-0.0468 0.32811,-0.0703 0.42188,-0.0703 0.14061,-0.0468 0.30467,-0.0703 0.49219,-0.0703 1.35935,5e-5 2.5781,0.32818 3.65625,0.98438 1.0781,0.6563 1.92185,1.54692 2.53125,2.67187 0.65622,1.12505 0.98435,2.36724 0.98437,3.72656 -2e-5,1.35942 -0.32815,2.60161 -0.98437,3.72657 -0.6094,1.07816 -1.47659,1.92191 -2.60157,2.53125 -1.07814,0.60941 -2.27345,0.9141 -3.58593,0.91406 -2.06252,4e-5 -3.82033,-0.65621 -5.27344,-1.96875 -1.40626,-1.35933 -2.10939,-3.09371 -2.10938,-5.20313 -1e-5,-4.07807 1.26562,-7.59369 3.79688,-10.54687 2.57811,-2.99994 5.81248,-5.2265 9.70312,-6.67969 3.8906,-1.49993 7.85154,-2.24993 11.88282,-2.25 3.04683,7e-5 6.11714,0.42194 9.21093,1.26563 3.09371,0.84381 5.95308,2.086 8.57813,3.72656 2.67182,1.59381 4.80463,3.60943 6.39844,6.04687 1.64056,2.39068 2.46087,5.1563 2.46093,8.29688 -6e-5,5.85941 -1.92193,11.0391 -5.76562,15.53906 -3.79693,4.50003 -8.60161,7.66409 -14.41406,9.49219 3.04683,0.51564 6.02339,1.50002 8.92968,2.95312 2.95308,1.40627 5.55464,3.18752 7.80469,5.34375 2.24994,2.15626 4.03119,4.6172 5.34375,7.38282 1.31244,2.76562 1.96869,5.78906 1.96875,9.07031 -6e-5,5.24999 -1.45319,9.93748 -4.35937,14.0625 -2.90631,4.17185 -6.72662,7.40622 -11.46094,9.70312 -4.68755,2.29685 -9.58598,3.44529 -14.69531,3.44532 -4.68753,-3e-5 -9.28128,-0.84378 -13.78125,-2.53125 -4.45315,-1.64066 -8.15627,-4.1719 -11.10938,-7.59375 -2.90626,-3.37502 -4.35938,-7.4297 -4.35937,-12.16407 -10e-6,-2.29688 0.77343,-4.17188 2.32031,-5.625 1.54686,-1.45312 3.42186,-2.17968 5.625,-2.17968 2.15623,0 3.98436,0.72656 5.48437,2.17968 1.49998,1.45312 2.24998,3.32812 2.25,5.625 -2e-5,2.24999 -0.77345,4.12499 -2.32031,5.625 -1.50002,1.54686 -3.3047,2.3203 -5.41406,2.32032 -0.14064,-0.0469 -0.28126,-0.0938 -0.42188,-0.14063 -0.0938,-2e-5 -0.16407,-2e-5 -0.21093,0"
         style="font-size:144px;font-style:normal;font-variant:normal;font-weight:normal;font-stretch:normal;line-height:125%;letter-spacing:0px;word-spacing:0px;fill:#ff00d0;fill-opacity:1;stroke:none;font-family:cmmi10;-inkscape-font-specification:cmmi10"
         id="path3006"
         inkscape:connector-curvature="0" />
    </g>
    <text
       xml:space="preserve"
       style="font-style:normal;font-variant:normal;font-weight:normal;font-stretch:normal;font-size:14px;line-height:125%;font-family:'Liberation Serif';-inkscape-font-specification:'Liberation Serif';letter-spacing:0px;word-spacing:0px;fill:#000000;fill-opacity:1;stroke:none"
       x="141.3166"
       y="562.05023"
       id="text2989"
       sodipodi:linespacing="125%"><tspan
         sodipodi:role="line"
         id="tspan2991"
         x="141.3166"
         y="562.05023"
         style="font-style:normal;font-variant:normal;font-weight:normal;font-stretch:normal;font-family:'Liberation Serif';-inkscape-font-specification:'Liberation Serif'">Developed at Colorado State University by:</tspan><tspan
         sodipodi:role="line"
         x="141.3166"
         y="579.55023"
         id="tspan2993"
         style="font-style:normal;font-variant:normal;font-weight:normal;font-stretch:normal;font-family:'Liberation Serif';-inkscape-font-specification:'Liberation Serif'">    Elliott Forney</tspan><tspan
         sodipodi:role="line"
         x="141.3166"
         y="597.05023"
         id="tspan2995"
         style="font-style:normal;font-variant:normal;font-weight:normal;font-stretch:normal;font-family:'Liberation Serif';-inkscape-font-specification:'Liberation Serif'">    Charles Anderson</tspan></text>
  </g>
</svg>
